name rise49.8558peak67.6521fall70.3087.mot
datacolumns 19
datarows 18
range 21.20825000000000 21.23658500000000
endheader
time	ground_force1_vx	ground_force1_vy	ground_force1_vz	ground_force1_px	ground_force1_py	ground_force1_pz	ground_force2_vx	ground_force2_vy	ground_force2_vz	ground_force2_px	ground_force2_py	ground_force2_pz	ground_torque1_x	ground_torque1_y	ground_torque1_z	ground_torque2_x	ground_torque2_y	ground_torque2_z	
21.20825000000000	48.69138000000000	701.38291600000002	52.99130400000000	0.34994600000000	0.00000000000000	0.12824500000000	-0.68738700000000	7.21089900000000	0.40213000000000	0.00000000000000	0.00000000000000	0.00000000000000	0.00000000000000	23.88490900000000	0.00000000000000	0.00000000000000	-0.04868200000000	0.00000000000000	
21.20991600000000	48.03985900000000	704.30607899999995	53.28360400000000	0.34842700000000	0.00000000000000	0.12826400000000	-0.21205000000000	3.65849700000000	0.24146400000000	0.00000000000000	0.00000000000000	0.00000000000000	0.00000000000000	24.08600300000000	0.00000000000000	0.00000000000000	-0.01079000000000	0.00000000000000	
21.21159100000000	47.40405800000000	707.21313699999996	53.58852800000000	0.34695600000000	0.00000000000000	0.12828400000000	0.00000000000000	0.00000000000000	0.00000000000000	0.00000000000000	0.00000000000000	0.00000000000000	0.00000000000000	24.29420400000000	0.00000000000000	0.00000000000000	0.00000000000000	0.00000000000000	
21.21325400000000	46.78405500000000	710.10139800000002	53.90528900000000	0.34553300000000	0.00000000000000	0.12830400000000	0.00000000000000	0.00000000000000	0.00000000000000	0.00000000000000	0.00000000000000	0.00000000000000	0.00000000000000	24.50901600000000	0.00000000000000	0.00000000000000	0.00000000000000	0.00000000000000	
21.21491700000000	46.17982500000000	712.96799899999996	54.23299700000000	0.34416000000000	0.00000000000000	0.12832400000000	0.00000000000000	0.00000000000000	0.00000000000000	0.00000000000000	0.00000000000000	0.00000000000000	0.00000000000000	24.72989200000000	0.00000000000000	0.00000000000000	0.00000000000000	0.00000000000000	
21.21658700000000	45.59124400000000	715.80992900000001	54.57066600000000	0.34283600000000	0.00000000000000	0.12834400000000	0.00000000000000	0.00000000000000	0.00000000000000	0.00000000000000	0.00000000000000	0.00000000000000	0.00000000000000	24.95623900000000	0.00000000000000	0.00000000000000	0.00000000000000	0.00000000000000	
21.21825000000000	45.01809600000000	718.62404500000002	54.91722100000000	0.34156100000000	0.00000000000000	0.12836400000000	0.00000000000000	0.00000000000000	0.00000000000000	0.00000000000000	0.00000000000000	0.00000000000000	0.00000000000000	25.18741600000000	0.00000000000000	0.00000000000000	0.00000000000000	0.00000000000000	
21.21992100000000	44.46007400000000	721.40708600000005	55.27150600000000	0.34033500000000	0.00000000000000	0.12838500000000	0.00000000000000	0.00000000000000	0.00000000000000	0.00000000000000	0.00000000000000	0.00000000000000	0.00000000000000	25.42274400000000	0.00000000000000	0.00000000000000	0.00000000000000	0.00000000000000	
21.22158200000000	43.91678700000000	724.15569400000004	55.63229100000000	0.33915700000000	0.00000000000000	0.12840500000000	0.00000000000000	0.00000000000000	0.00000000000000	0.00000000000000	0.00000000000000	0.00000000000000	0.00000000000000	25.66150700000000	0.00000000000000	0.00000000000000	0.00000000000000	0.00000000000000	
21.22325700000000	43.38776700000000	726.86643300000003	55.99827900000000	0.33802700000000	0.00000000000000	0.12842400000000	0.00000000000000	0.00000000000000	0.00000000000000	0.00000000000000	0.00000000000000	0.00000000000000	0.00000000000000	25.90295700000000	0.00000000000000	0.00000000000000	0.00000000000000	0.00000000000000	
21.22491900000000	42.87246800000000	729.53580299999999	56.36811700000000	0.33694300000000	0.00000000000000	0.12844300000000	0.00000000000000	0.00000000000000	0.00000000000000	0.00000000000000	0.00000000000000	0.00000000000000	0.00000000000000	26.14631600000000	0.00000000000000	0.00000000000000	0.00000000000000	0.00000000000000	
21.22658700000000	42.37028000000000	732.16026299999999	56.74040200000000	0.33590500000000	0.00000000000000	0.12846100000000	0.00000000000000	0.00000000000000	0.00000000000000	0.00000000000000	0.00000000000000	0.00000000000000	0.00000000000000	26.39078400000000	0.00000000000000	0.00000000000000	0.00000000000000	0.00000000000000	
21.22825300000000	41.88053000000000	734.73624600000005	57.11368900000000	0.33491100000000	0.00000000000000	0.12847900000000	0.00000000000000	0.00000000000000	0.00000000000000	0.00000000000000	0.00000000000000	0.00000000000000	0.00000000000000	26.63554000000000	0.00000000000000	0.00000000000000	0.00000000000000	0.00000000000000	
21.22992300000000	41.40248900000000	737.26017800000000	57.48650300000000	0.33396100000000	0.00000000000000	0.12849500000000	0.00000000000000	0.00000000000000	0.00000000000000	0.00000000000000	0.00000000000000	0.00000000000000	0.00000000000000	26.87974900000000	0.00000000000000	0.00000000000000	0.00000000000000	0.00000000000000	
21.23158400000000	40.93537700000000	739.72849599999995	57.85734700000000	0.33305100000000	0.00000000000000	0.12851000000000	0.00000000000000	0.00000000000000	0.00000000000000	0.00000000000000	0.00000000000000	0.00000000000000	0.00000000000000	27.12256400000000	0.00000000000000	0.00000000000000	0.00000000000000	0.00000000000000	
21.23325300000000	40.47837300000000	742.13766599999997	58.22470800000000	0.33218200000000	0.00000000000000	0.12852500000000	0.00000000000000	0.00000000000000	0.00000000000000	0.00000000000000	0.00000000000000	0.00000000000000	0.00000000000000	27.36313200000000	0.00000000000000	0.00000000000000	0.00000000000000	0.00000000000000	
21.23491900000000	40.03061800000000	744.48419600000000	58.58707100000000	0.33135000000000	0.00000000000000	0.12853800000000	0.00000000000000	0.00000000000000	0.00000000000000	0.00000000000000	0.00000000000000	0.00000000000000	0.00000000000000	27.60059500000000	0.00000000000000	0.00000000000000	0.00000000000000	0.00000000000000	
21.23658500000000	39.59122200000000	746.76466000000005	58.94292200000000	0.33055500000000	0.00000000000000	0.12854900000000	0.00000000000000	0.00000000000000	0.00000000000000	0.00000000000000	0.00000000000000	0.00000000000000	0.00000000000000	27.83410000000000	0.00000000000000	0.00000000000000	0.00000000000000	0.00000000000000	
